<?xml version="1.0" encoding="UTF-8" standalone="no"?>
<svg width="46px" height="42px" viewBox="0 0 46 42" version="1.1" xmlns="http://www.w3.org/2000/svg" xmlns:xlink="http://www.w3.org/1999/xlink">
    <!-- Generator: Sketch 42 (36781) - http://www.bohemiancoding.com/sketch -->
    <title>camera-alt</title>
    <desc>Created with Sketch.</desc>
    <defs></defs>
    <g id="Welcome" stroke="none" stroke-width="1" fill="none" fill-rule="evenodd">
        <g id="upload-page" transform="translate(-61.000000, -251.000000)" fill="#FFFFFF">
            <g id="camera-alt" transform="translate(61.000000, 251.000000)">
                <ellipse id="Oval" cx="23.2629951" cy="23.2629951" rx="7.29819455" ry="7.29819455"></ellipse>
                <path d="M15.9648006,0 L11.8595661,4.56137159 L4.56137159,4.56137159 C2.05261722,4.56137159 0,6.61398881 0,9.12274318 L0,36.4909727 C0,38.9997271 2.05261722,41.0523443 4.56137159,41.0523443 L41.0523443,41.0523443 C43.5610987,41.0523443 45.6137159,38.9997271 45.6137159,36.4909727 L45.6137159,9.12274318 C45.6137159,6.61398881 43.5610987,4.56137159 41.0523443,4.56137159 L33.7541498,4.56137159 L29.6489153,0 L15.9648006,0 L15.9648006,0 Z M22.806858,34.2102869 C16.4209377,34.2102869 11.403429,29.1927782 11.403429,22.806858 C11.403429,16.4209377 16.4209377,11.403429 22.806858,11.403429 C29.1927782,11.403429 34.2102869,16.4209377 34.2102869,22.806858 C34.2102869,29.1927782 29.1927782,34.2102869 22.806858,34.2102869 L22.806858,34.2102869 Z" id="Shape"></path>
            </g>
        </g>
    </g>
</svg>