<?xml version="1.0" encoding="UTF-8" standalone="no"?>
<svg width="53px" height="39px" viewBox="0 0 53 39" version="1.1" xmlns="http://www.w3.org/2000/svg" xmlns:xlink="http://www.w3.org/1999/xlink">
    <!-- Generator: Sketch 42 (36781) - http://www.bohemiancoding.com/sketch -->
    <title>Fill 43</title>
    <desc>Created with Sketch.</desc>
    <defs></defs>
    <g id="Welcome" stroke="none" stroke-width="1" fill="none" fill-rule="evenodd">
        <g id="info-page" transform="translate(-134.000000, -98.000000)" fill="#000000">
            <path d="M148.125063,108.075878 L162.250126,98.6591696 L162.250126,136.326005 L148.125063,126.909296 L134,126.909296 L134,108.075878 L148.125063,108.075878 L148.125063,108.075878 L148.125063,108.075878 L148.125063,108.075878 Z M167.054217,105.392116 L170.301413,102.896689 C173.785595,107.134208 175.527686,111.999507 175.527686,117.492587 C175.527686,122.828722 173.865637,127.58416 170.53683,131.758901 L167.382233,129.169306 C170.083259,125.716513 171.431418,121.824273 171.431418,117.492587 C171.431418,112.941178 169.971828,108.907688 167.054217,105.392116 C167.054217,105.392116 169.971828,108.907688 167.054217,105.392116 L167.054217,105.392116 L167.054217,105.392116 Z M179.860941,137.032258 L180.143443,136.65559 C184.600685,131.068342 186.829306,124.712064 186.829306,117.586754 C186.829306,110.367278 184.569296,103.963916 180.047706,98.3766684 L179.766774,98 L175.857271,101.013347 L176.186856,101.390015 C180.047706,106.129759 181.979701,111.528672 181.979701,117.586754 C181.979701,123.519281 180.110484,128.839721 176.37519,133.548076 L176.045605,133.924744 L179.860941,137.032258 L179.860941,137.032258 Z" id="Fill-43"></path>
        </g>
    </g>
</svg>