<?xml version="1.0" encoding="UTF-8" standalone="no"?>
<svg width="29px" height="41px" viewBox="0 0 29 41" version="1.1" xmlns="http://www.w3.org/2000/svg" xmlns:xlink="http://www.w3.org/1999/xlink">
    <!-- Generator: Sketch 42 (36781) - http://www.bohemiancoding.com/sketch -->
    <title>Shape</title>
    <desc>Created with Sketch.</desc>
    <defs></defs>
    <g id="Welcome" stroke="none" stroke-width="1" fill="none" fill-rule="evenodd">
        <g id="upload-page" transform="translate(-222.000000, -251.000000)" fill="#7ED321">
            <path d="M236.5,251 C228.421429,251 222,257.355 222,265.35 C222,276.01 236.5,292 236.5,292 C236.5,292 251,276.01 251,265.35 C251,257.355 244.578571,251 236.5,251 L236.5,251 Z M236.5,270.475 C233.6,270.475 231.321429,268.22 231.321429,265.35 C231.321429,262.48 233.6,260.225 236.5,260.225 C239.4,260.225 241.678571,262.48 241.678571,265.35 C241.678571,268.22 239.4,270.475 236.5,270.475 L236.5,270.475 Z" id="Shape"></path>
        </g>
    </g>
</svg>